<svg xmlns="http://www.w3.org/2000/svg" width="760" height="300" viewBox="0 0 760 300" role="img" aria-label="Instructions executed on arm">

  <style>
    .bg   { fill: #ffffff; }
    .ax   { stroke: #c8c8c8; stroke-width: 1; }
    .grid { stroke: #ececec; stroke-width: 1; }
    text  { font-family: -apple-system, BlinkMacSystemFont, "Segoe UI",
            Helvetica, Arial, sans-serif; fill: #24292f; }
    .title  { font-size: 15px; font-weight: 600; }
    .sub    { font-size: 11px; fill: #57606a; }
    .lbl    { font-size: 11.5px; }
    .val    { font-size: 11px; font-weight: 600; }
    .ref    { stroke: #d1242f; stroke-width: 1.25; stroke-dasharray: 4 3; }
    .reftxt { font-size: 10px; fill: #d1242f; }
    @media (prefers-color-scheme: dark) {
      .bg   { fill: #0d1117; }
      .ax   { stroke: #30363d; }
      .grid { stroke: #21262d; }
      text  { fill: #e6edf3; }
      .sub  { fill: #8b949e; }
      .ref    { stroke: #ff7b72; }
      .reftxt { fill: #ff7b72; }
    }
  </style>

<rect class="bg" width="760" height="300"/>
<text class="title" x="16" y="24">Instructions executed on arm</text>
<text class="sub" x="16" y="40">Counted exactly under QEMU, zero run-to-run variance · lower is better</text>
<line class="grid" x1="327.5" y1="46" x2="327.5" y2="266.0"/>
<line class="grid" x1="445.0" y1="46" x2="445.0" y2="266.0"/>
<line class="grid" x1="562.5" y1="46" x2="562.5" y2="266.0"/>
<line class="grid" x1="680.0" y1="46" x2="680.0" y2="266.0"/>
<line class="ax" x1="210" y1="46" x2="210" y2="266.0"/>
<text class="lbl" x="202" y="72.0" text-anchor="end">corpus</text>
<rect x="210" y="51.0" width="313.2" height="14.5" fill="#1f4e79" rx="1.5"><title>minimp3-fixed: 246,044,044 instructions</title></rect>
<text class="val" x="528.2" y="61.0">246,044,044</text>
<rect x="210" y="68.0" width="398.3" height="14.5" fill="#7fb3d5" rx="1.5"><title>minimp3-float: 312,920,939 instructions</title></rect>
<text class="val" x="613.3" y="78.0">312,920,939</text>
<text class="lbl" x="202" y="116.0" text-anchor="end">l3-compl</text>
<rect x="210" y="95.0" width="74.1" height="14.5" fill="#1f4e79" rx="1.5"><title>minimp3-fixed: 58,240,889 instructions</title></rect>
<text class="val" x="289.1" y="105.0">58,240,889</text>
<rect x="210" y="112.0" width="92.6" height="14.5" fill="#7fb3d5" rx="1.5"><title>minimp3-float: 72,728,990 instructions</title></rect>
<text class="val" x="307.6" y="122.0">72,728,990</text>
<text class="lbl" x="202" y="160.0" text-anchor="end">l3-hecommon</text>
<rect x="210" y="139.0" width="19.5" height="14.5" fill="#1f4e79" rx="1.5"><title>minimp3-fixed: 15,288,555 instructions</title></rect>
<text class="val" x="234.5" y="149.0">15,288,555</text>
<rect x="210" y="156.0" width="18.5" height="14.5" fill="#7fb3d5" rx="1.5"><title>minimp3-float: 14,556,142 instructions</title></rect>
<text class="val" x="233.5" y="166.0">14,556,142</text>
<text class="lbl" x="202" y="204.0" text-anchor="end">l3-nonstandard-he_44_48khz</text>
<rect x="210" y="183.0" width="180.0" height="14.5" fill="#1f4e79" rx="1.5"><title>minimp3-fixed: 141,440,245 instructions</title></rect>
<text class="val" x="395.0" y="193.0">141,440,245</text>
<rect x="210" y="200.0" width="237.0" height="14.5" fill="#7fb3d5" rx="1.5"><title>minimp3-float: 186,209,184 instructions</title></rect>
<text class="val" x="452.0" y="210.0">186,209,184</text>
<text class="lbl" x="202" y="248.0" text-anchor="end">l3-si</text>
<rect x="210" y="227.0" width="39.6" height="14.5" fill="#1f4e79" rx="1.5"><title>minimp3-fixed: 31,074,355 instructions</title></rect>
<text class="val" x="254.6" y="237.0">31,074,355</text>
<rect x="210" y="244.0" width="50.2" height="14.5" fill="#7fb3d5" rx="1.5"><title>minimp3-float: 39,426,623 instructions</title></rect>
<text class="val" x="265.2" y="254.0">39,426,623</text>
<rect x="16" y="281" width="10" height="10" fill="#1f4e79" rx="1.5"/>
<text class="sub" x="31" y="290">fixed point</text>
<rect x="115" y="281" width="10" height="10" fill="#7fb3d5" rx="1.5"/>
<text class="sub" x="130" y="290">floating point</text>
<text class="sub" x="744" y="290" text-anchor="end">instructions</text>
</svg>
